<?xml version="1.0" encoding="utf-8"?>
<!-- Generator: Adobe Illustrator 25.3.1, SVG Export Plug-In . SVG Version: 6.00 Build 0)  -->
<svg version="1.1" id="Capa_1" xmlns="http://www.w3.org/2000/svg" xmlns:xlink="http://www.w3.org/1999/xlink"
	 viewBox="0 0 453.6 140.7" style="enable-background:new 0 0 453.6 140.7;" xml:space="preserve">
<g>
	<path d="M295.5,44c0-14.6-10.5-25.6-24.6-25.6C255.5,18.4,245,29.5,245,44c0,14.5,10.3,25.6,26.9,25.6c9.2,0,16.4-3.4,21.1-10
		l-11.6-6.7c-1.9,2.1-5.3,3.7-9.3,3.7c-5.3,0-9.8-1.7-11.6-6.8h34.4C295.3,48,295.5,46,295.5,44L295.5,44z M281,38.9h-20.9
		c1.4-4.9,5-7.7,10.6-7.7C275.1,31.3,279.5,33.3,281,38.9L281,38.9z M232.4,44L250,19.7h-17l-14.5,19.1V0.3h-14.5v67.9h14.5V49.8
		L234,68.2h16.5L232.4,44L232.4,44z M183.4,68.2H198V19.7h-14.5v4.6c-3.2-3.7-8-5.9-14.5-5.9c-12.7,0-23.2,11.2-23.2,25.6
		c0,14.5,10.5,25.6,23.2,25.6c6.5,0,11.3-2.2,14.5-5.9V68.2L183.4,68.2z M183.4,44c0,7.3-4.8,11.8-11.5,11.8s-11.5-4.6-11.5-11.8
		c0-7.3,4.8-11.8,11.5-11.8S183.4,36.7,183.4,44L183.4,44z M134.7,68.2l13.4-48.7l-15.8,0.1l-7,28.2l-10.6-28.3H97.2L86.6,47.9
		L74.9,0.3H58.6l17.1,61.9c7.1,0,13.9,1.8,19.8,4.9L106,40.6l11.1,27.6H134.7L134.7,68.2z"/>
	<path d="M340.1,20.1v26.4c0,6.9-3.7,9.9-9,9.9c-4.6,0-8.4-2.8-8.4-8.8V20.1h-14.5v29.7c0,13,8.3,20,18.1,20
		c6.4,0,11.2-2.3,13.8-5.9v4.5h14.5V20.1H340.1L340.1,20.1z"/>
	<path d="M412.7,44.2c0-14.4-10.4-25.5-23.1-25.5c-6.5,0-11.2,2.2-14.4,5.9v-4.5h-14.5v61.2l14.5-4.1V63.9c3.2,3.7,7.9,5.9,14.4,5.9
		C402.3,69.7,412.7,58.6,412.7,44.2L412.7,44.2z M398.2,44.2c0,7.2-4.8,11.8-11.5,11.8c-6.7,0-11.5-4.5-11.5-11.8
		c0-7.2,4.8-11.8,11.5-11.8C393.4,32.5,398.2,37,398.2,44.2L398.2,44.2z"/>
	<path d="M75,141c12.4,0,23.2-6.1,29-15.6l-13.3-7.7c-2.9,5.2-8.8,8.3-15.6,8.3c-12,0-19.7-8-19.7-20.1c0-12.1,7.7-20.1,19.7-20.1
		c6.9,0,12.7,3.1,15.6,8.3l13.3-7.7c-5.9-9.6-16.7-15.6-29-15.6c-20.4,0-35.2,15.3-35.2,35.2C39.8,125.8,54.6,141,75,141L75,141z"/>
	<path d="M155.6,115.5c0-14.4-11.4-25.5-25.6-25.5c-14.2,0-25.6,11.1-25.6,25.5c0,14.4,11.4,25.5,25.6,25.5
		C144.2,141,155.6,129.9,155.6,115.5L155.6,115.5z M141.1,115.5c0,6.9-4.8,11.4-11.1,11.4s-11.1-4.5-11.1-11.4s4.8-11.4,11.1-11.4
		S141.1,108.7,141.1,115.5L141.1,115.5z"/>
	<path d="M186.5,90c-6.4,0-11.2,2.3-13.8,5.9v-4.5h-14.5v48.3h14.5v-26.4c0-6.9,3.7-9.9,9-9.9c4.6,0,8.4,2.8,8.4,8.8v27.5h14.5V110
		C204.6,97,196.2,90,186.5,90L186.5,90z"/>
	<path d="M237.1,90c-6.4,0-11.2,2.3-13.8,5.9v-4.5h-14.5v48.3h14.5v-26.4c0-6.9,3.7-9.9,9-9.9c4.6,0,8.4,2.8,8.4,8.8v27.5h14.5V110
		C255.2,97,246.9,90,237.1,90L237.1,90z"/>
	<path d="M308.6,115.5C308.6,101,298.1,90,284,90c-15.3,0-25.7,11.1-25.7,25.5c0,14.4,10.2,25.5,26.8,25.5c9.2,0,16.3-3.4,21.1-9.9
		l-11.6-6.7c-1.9,2.1-5.3,3.7-9.3,3.7c-5.3,0-9.8-1.7-11.6-6.8H308C308.4,119.5,308.6,117.6,308.6,115.5L308.6,115.5z M294.2,110.5
		h-20.8c1.4-4.9,5-7.6,10.5-7.6C288.3,102.9,292.6,104.9,294.2,110.5L294.2,110.5z"/>
	<g>
		<defs>
			<rect id="SVGID_1_" x="-0.2" y="0.3" width="453.6" height="140.7"/>
		</defs>
		<clipPath id="SVGID_2_">
			<use xlink:href="#SVGID_1_"  style="overflow:visible;"/>
		</clipPath>
		<path class="st0" d="M337.2,141c9.5,0,17.7-4.9,21.8-12.5l-12.7-7.2c-1.5,3.4-5.1,5.4-9.4,5.4c-6.3,0-10.9-4.5-10.9-11.2
			c0-6.7,4.6-11.2,10.9-11.2c4.2,0,7.7,2,9.4,5.4l12.7-7.3C354.8,95,346.5,90,337.2,90c-14.7,0-25.6,11.1-25.6,25.5
			C311.6,129.9,322.5,141,337.2,141L337.2,141z"/>
		<path class="st0" d="M385.1,105.3V91.4h-9.9v-7.2l-14.5,4.3v16.8v17.1c0,13.5,5.5,19.2,24.4,17.3v-13.1c-6.4,0.4-9.9,0-9.9-4.2
			v-17.1H385.1L385.1,105.3z"/>
		<path class="st0" d="M28.7,127.5c-1.4,0-2.7-0.6-3.6-1.8c-8.1-10.9-8.7-24.2-1.7-35.6c1.3-2.1,4.1-2.8,6.2-1.5
			c2.1,1.3,2.8,4.1,1.5,6.2c-5,8.2-4.5,17.7,1.3,25.5c1.5,2,1.1,4.8-0.9,6.3C30.6,127.2,29.7,127.5,28.7,127.5L28.7,127.5z"/>
		<path class="st0" d="M16.3,139.5c-1.2,0-2.3-0.4-3.2-1.3c-1.1-1.1-2.2-2.3-3.2-3.6c-7.2-8.9-10.8-20.2-10-31.7
			c0.8-11.4,5.8-22.1,14-30.1c1.8-1.7,4.7-1.7,6.4,0.1c1.7,1.8,1.7,4.7-0.1,6.4c-6.6,6.4-10.6,15-11.3,24.2
			c-0.6,9.2,2.2,18.2,8,25.4c0.8,1,1.7,2,2.6,2.9c1.8,1.8,1.8,4.6,0,6.4C18.6,139,17.5,139.5,16.3,139.5L16.3,139.5z"/>
		<path class="st0" d="M424.5,66.4c-0.9,0-1.9-0.3-2.7-0.9c-2-1.5-2.4-4.3-0.9-6.3c5.8-7.8,6.3-17.3,1.3-25.5
			c-1.3-2.1-0.6-4.9,1.5-6.2c2.1-1.3,4.9-0.6,6.2,1.5c7,11.4,6.4,24.7-1.7,35.6C427.3,65.7,425.9,66.4,424.5,66.4L424.5,66.4z"/>
		<path class="st0" d="M436.9,78.4c-1.2,0-2.3-0.4-3.2-1.3c-1.8-1.8-1.8-4.6,0-6.4c0.9-0.9,1.8-1.9,2.6-2.9c5.8-7.1,8.6-16.2,8-25.4
			c-0.6-9.2-4.6-17.8-11.3-24.2c-1.8-1.7-1.8-4.6-0.1-6.4c1.7-1.8,4.6-1.8,6.4-0.1c8.2,8,13.2,18.7,14,30.1
			c0.8,11.5-2.7,22.8-10,31.7c-1,1.2-2.1,2.5-3.2,3.6C439.2,77.9,438.1,78.4,436.9,78.4L436.9,78.4z"/>
	</g>
</g>
</svg>
